<svg viewBox="0 0 100 100" xmlns="http://www.w3.org/2000/svg">
    <path d="M0,80 Q50,85 100,75" stroke="#8b5a2b" stroke-width="6" fill="none"/>
    <polygon points="32,35 25,15 45,28" fill="#cd853f"/>
    <polygon points="68,35 75,15 55,28" fill="#cd853f"/>
    <ellipse cx="28" cy="55" rx="6" ry="16" fill="#a0522d"/>
    <ellipse cx="72" cy="55" rx="6" ry="16" fill="#a0522d"/>
    <ellipse cx="50" cy="53" rx="22" ry="26" fill="#cd853f"/>
    <ellipse cx="50" cy="62" rx="14" ry="12" fill="#f5deb3"/>
    <path d="M44,61 L46.5,63 L49,61 M51,61 L53.5,63 L56,61 M47.5,66 L50,68 L52.5,66" stroke="#cd853f" stroke-width="1.5" stroke-linecap="round" fill="none"/>
    <circle cx="38" cy="38" r="13" fill="#f5deb3"/>
    <circle cx="62" cy="38" r="13" fill="#f5deb3"/>
    <circle cx="38" cy="38" r="4.5" fill="#000"/>
    <circle cx="36" cy="36" r="1.5" fill="#fff"/>
    <circle cx="62" cy="38" r="4.5" fill="#000"/>
    <circle cx="60" cy="36" r="1.5" fill="#fff"/>
    <polygon points="47,42 53,42 50,49" fill="#d97706"/>
    <path d="M42,75 L42,83 M46,76 L46,84 M54,76 L54,84 M58,75 L58,83" stroke="#d97706" stroke-width="3" stroke-linecap="round"/>
</svg>
